<?xml version="1.0" encoding="iso-8859-1"?>
<!-- Generator: Adobe Illustrator 19.0.0, SVG Export Plug-In . SVG Version: 6.00 Build 0)  -->
<svg version="1.1" id="Capa_1" xmlns="http://www.w3.org/2000/svg" xmlns:xlink="http://www.w3.org/1999/xlink" x="0px" y="0px"
	 viewBox="0 0 512 512" style="enable-background:new 0 0 512 512;" xml:space="preserve">
<path style="fill:#FFB74F;" d="M512,256c0,68.38-26.63,132.67-74.98,181.02C388.67,485.37,324.38,512,256,512
	s-132.67-26.63-181.02-74.98S0,324.38,0,256S26.63,123.33,74.98,74.98S187.62,0,256,0s132.67,26.63,181.02,74.98
	C485.37,123.33,512,187.62,512,256z"/>
<path style="fill:#FF9A00;" d="M512,256c0,68.38-26.63,132.67-74.98,181.02C388.67,485.37,324.38,512,256,512V0
	c68.38,0,132.67,26.63,181.02,74.98C485.37,123.33,512,187.62,512,256z"/>
<path style="fill:#FF8900;" d="M453,256c0,108.63-88.37,197-197,197S59,364.63,59,256S147.37,59,256,59S453,147.37,453,256z"/>
<path style="fill:#C06100;" d="M453,256c0,108.63-88.37,197-197,197V59C364.63,59,453,147.37,453,256z"/>
<path style="fill:#FFDBA9;" d="M328.42,256c13.58-11.55,22.22-28.75,22.22-47.94c0-34.71-28.23-62.94-62.94-62.94h-10.51v-25.21h-30
	v25.21h-70.83v30h26.75v161.76h-26.75v30h70.83v25.21h30v-25.21h10.51c34.71,0,62.94-28.23,62.94-62.94
	C350.64,284.75,342,267.55,328.42,256z M287.7,336.88h-54.59V271h54.59c18.17,0,32.94,14.78,32.94,32.94S305.87,336.88,287.7,336.88
	z M287.7,241h-54.59v-65.88h54.59c18.17,0,32.94,14.78,32.94,32.94S305.87,241,287.7,241z"/>
<path style="fill:#FFC473;" d="M350.64,303.94c0,34.71-28.23,62.94-62.94,62.94h-10.51v25.21H256v-55.21h31.7
	c18.17,0,32.94-14.78,32.94-32.94S305.87,271,287.7,271H256v-30h31.7c18.17,0,32.94-14.78,32.94-32.94s-14.77-32.94-32.94-32.94H256
	v-55.21h21.19v25.21h10.51c34.71,0,62.94,28.23,62.94,62.94c0,19.19-8.64,36.39-22.22,47.94C342,267.55,350.64,284.75,350.64,303.94
	z"/>
<g>
</g>
<g>
</g>
<g>
</g>
<g>
</g>
<g>
</g>
<g>
</g>
<g>
</g>
<g>
</g>
<g>
</g>
<g>
</g>
<g>
</g>
<g>
</g>
<g>
</g>
<g>
</g>
<g>
</g>
</svg>
